<?xml version="1.0" encoding="utf-8"?>
<!-- Generator: Adobe Illustrator 19.0.0, SVG Export Plug-In . SVG Version: 6.00 Build 0)  -->
<svg version="1.1" id="Layer_1" xmlns="http://www.w3.org/2000/svg" xmlns:xlink="http://www.w3.org/1999/xlink" x="0px" y="0px"
	 viewBox="-234 375 143 44" style="enable-background:new -234 375 143 44;" xml:space="preserve">
<style type="text/css">
	.st0{fill:#E4E4E4;}
	.st1{fill:#C8C8C8;}
	.st2{fill:#FFFFFF;}
	.st3{fill:#1EAAF1;}
	.st4{fill:#EB2D81;}
	.st5{fill:#1EAAF1;enable-background:new    ;}
</style>
<g>
	<circle class="st0" cx="-211.8" cy="397" r="22"/>
	<path class="st1" d="M-190.2,402c0.2-0.9,0.4-1.8,0.4-2.8l-11.9-11.9l-6.5,6.5l-6.2-6.2l-4.6,12.3l-3.3,6.3l12.8,12.8
		c1-0.1,2-0.3,2.9-0.5C-198.6,416.6-192.1,410.2-190.2,402z"/>
	<g>
		<path class="st2" d="M-210.4,391c0-2.5,2.1-4.6,4.6-4.6h1.2c2.5,0,4.6,2.1,4.6,4.6v6.1h-10.4L-210.4,391L-210.4,391z"/>
	</g>
	<g>
		<path class="st3" d="M-204.6,407.8h-1.2c-2.5,0-4.6-2.1-4.6-4.6v-6.1h10.4v6.1C-200.1,405.8-202.1,407.8-204.6,407.8z"/>
	</g>
	<g>
		<path class="st2" d="M-213.1,403.2c0,2.5-2.1,4.6-4.6,4.6h-1.2c-2.5,0-4.6-2.1-4.6-4.6v-6.1h10.4L-213.1,403.2L-213.1,403.2z"/>
	</g>
	<g>
		<path class="st4" d="M-218.8,386.4h1.2c2.5,0,4.6,2.1,4.6,4.6v6.1h-10.4V391C-223.4,388.4-221.3,386.4-218.8,386.4z"/>
	</g>
</g>
<polygon class="st5" points="-91.2,404.6 -91.2,407.6 -103.3,407.6 -103.3,386.2 -91.2,386.2 -91.2,389.2 -99.8,389.2 -99.8,395 
	-91.8,395 -91.8,397.9 -99.8,397.9 -99.8,404.6 "/>
<path class="st5" d="M-106.6,407.6l-6-9.5c2.8-1.1,4.2-3,4.2-5.7c0-2.1-0.7-3.7-2-4.7c-1.3-1.1-3.3-1.6-6.1-1.6h-6.1v21.4h3.5v-8.6
	h3.5l5.1,8.6v0.1H-106.6z M-113.2,395.2c-0.7,0.6-1.9,0.9-3.5,0.9h-2.4v-7h2.3c1.6,0,2.8,0.3,3.6,0.8s1.2,1.4,1.2,2.6
	S-112.3,394.6-113.2,395.2z"/>
<path class="st5" d="M-133.6,386h-3.8l-8,21.5h3.7l2.1-5.9h8.2l2.1,5.9h3.7L-133.6,386z M-138.5,398.6l1.9-5.6
	c0.6-1.4,0.9-2.7,1.2-3.9c0.1,0.3,0.2,1,0.5,1.8c0.3,0.8,0.5,1.4,0.6,1.8l2,5.9H-138.5z"/>
<path class="st5" d="M-150.6,389.2c-0.8-0.3-1.7-0.4-2.5-0.4c-2,0-3.6,0.7-4.7,2.1s-1.7,3.4-1.7,5.9c0,2.6,0.6,4.6,1.7,6
	c1.1,1.3,2.7,2,4.8,2c0.9,0,1.8-0.1,2.6-0.3c0.8-0.2,1.7-0.4,2.7-0.7v3c-1.7,0.6-3.6,1-5.7,1c-3.1,0-5.5-0.9-7.2-2.8
	s-2.5-4.6-2.5-8.2c0-2.2,0.4-4.2,1.2-5.8c0.8-1.7,2-2.9,3.5-3.8s3.4-1.3,5.4-1.3c2.2,0,4.2,0.5,6.1,1.4l-1.3,2.9
	C-149.1,389.8-149.8,389.5-150.6,389.2z"/>
<path class="st5" d="M-170.8,384.7v5.9c0,0.7,0,1.6,0.2,2.8h-0.2c-1.1-1.6-2.8-2.4-4.9-2.4c-2.1,0-3.7,0.7-4.8,2.2
	c-1.1,1.5-1.7,3.5-1.7,6.2s0.6,4.7,1.7,6.2c1.1,1.5,2.7,2.2,4.7,2.2c2.1,0,3.7-0.8,4.8-2.4h0.2l0.8,2.1h2.7v-22.8H-170.8z
	 M-170.7,399.9c0,1.8-0.4,3.1-1,3.9c-0.7,0.8-1.7,1.2-3.1,1.2c-1.3,0-2.3-0.5-2.9-1.4c-0.7-0.9-1-2.3-1-4.1s0.3-3.2,1-4.2
	c0.7-1,1.6-1.5,2.8-1.5c1.4,0,2.4,0.4,3.1,1.3c0.7,0.9,1,2.4,1,4.4h0.1V399.9z"/>
</svg>
