<?xml version="1.0" encoding="utf-8"?>
<!-- Generator: Adobe Illustrator 19.0.0, SVG Export Plug-In . SVG Version: 6.00 Build 0)  -->
<svg version="1.1" id="Layer_1" xmlns="http://www.w3.org/2000/svg" xmlns:xlink="http://www.w3.org/1999/xlink" x="0px" y="0px"
	 viewBox="-188 239 182.1 44" style="enable-background:new -188 239 182.1 44;" xml:space="preserve">
<style type="text/css">
	.st0{fill:#E4E4E4;}
	.st1{fill:#C8C8C8;}
	.st2{fill:#FFFFFF;}
	.st3{fill:#1EAAF1;}
	.st4{fill:#EB2D81;}
</style>
<g>
	<circle class="st0" cx="-166" cy="261" r="22"/>
	<path class="st1" d="M-144.4,266c0.2-0.9,0.4-1.8,0.4-2.8l-11.9-11.9l-6.5,6.5l-6.2-6.2l-4.6,12.3l-3.3,6.3l12.8,12.8
		c1-0.1,2-0.3,2.9-0.5C-152.8,280.6-146.3,274.2-144.4,266z"/>
	<g>
		<path class="st2" d="M-164.6,255c0-2.5,2.1-4.6,4.6-4.6h1.2c2.5,0,4.6,2.1,4.6,4.6v6.1h-10.4L-164.6,255L-164.6,255z"/>
	</g>
	<g>
		<path class="st3" d="M-158.8,271.8h-1.2c-2.5,0-4.6-2.1-4.6-4.6v-6.1h10.4v6.1C-154.3,269.8-156.3,271.8-158.8,271.8z"/>
	</g>
	<g>
		<path class="st2" d="M-167.3,267.2c0,2.5-2.1,4.6-4.6,4.6h-1.2c-2.5,0-4.6-2.1-4.6-4.6v-6.1h10.4L-167.3,267.2L-167.3,267.2z"/>
	</g>
	<g>
		<path class="st4" d="M-173,250.4h1.2c2.5,0,4.6,2.1,4.6,4.6v6.1h-10.4V255C-177.6,252.4-175.5,250.4-173,250.4z"/>
	</g>
</g>
<polygon class="st3" points="-45.4,268.6 -45.4,271.6 -57.5,271.6 -57.5,250.2 -45.4,250.2 -45.4,253.2 -54,253.2 -54,259 -46,259 
	-46,261.9 -54,261.9 -54,268.6 "/>
<path class="st3" d="M-60.8,271.6l-6-9.5c2.8-1.1,4.2-3,4.2-5.7c0-2.1-0.7-3.7-2-4.7c-1.3-1.1-3.3-1.6-6.1-1.6h-6.1v21.4h3.5v-8.6
	h3.5l5.1,8.6v0.1L-60.8,271.6L-60.8,271.6z M-67.4,259.2c-0.7,0.6-1.9,0.9-3.5,0.9h-2.4v-7h2.3c1.6,0,2.8,0.3,3.6,0.8
	s1.2,1.4,1.2,2.6S-66.5,258.6-67.4,259.2z"/>
<path class="st3" d="M-87.8,250h-3.8l-8,21.5h3.7l2.1-5.9h8.2l2.1,5.9h3.7L-87.8,250z M-92.7,262.6l1.9-5.6c0.6-1.4,0.9-2.7,1.2-3.9
	c0.1,0.3,0.2,1,0.5,1.8s0.5,1.4,0.6,1.8l2,5.9L-92.7,262.6L-92.7,262.6z"/>
<path class="st3" d="M-104.8,253.2c-0.8-0.3-1.7-0.4-2.5-0.4c-2,0-3.6,0.7-4.7,2.1s-1.7,3.4-1.7,5.9c0,2.6,0.6,4.6,1.7,6
	c1.1,1.3,2.7,2,4.8,2c0.9,0,1.8-0.1,2.6-0.3c0.8-0.2,1.7-0.4,2.7-0.7v3c-1.7,0.6-3.6,1-5.7,1c-3.1,0-5.5-0.9-7.2-2.8
	s-2.5-4.6-2.5-8.2c0-2.2,0.4-4.2,1.2-5.8c0.8-1.7,2-2.9,3.5-3.8s3.4-1.3,5.4-1.3c2.2,0,4.2,0.5,6.1,1.4l-1.3,2.9
	C-103.3,253.8-104,253.5-104.8,253.2z"/>
<path class="st3" d="M-125,248.7v5.9c0,0.7,0,1.6,0.2,2.8h-0.2c-1.1-1.6-2.8-2.4-4.9-2.4c-2.1,0-3.7,0.7-4.8,2.2s-1.7,3.5-1.7,6.2
	s0.6,4.7,1.7,6.2c1.1,1.5,2.7,2.2,4.7,2.2c2.1,0,3.7-0.8,4.8-2.4h0.2l0.8,2.1h2.7v-22.8L-125,248.7L-125,248.7z M-124.9,263.9
	c0,1.8-0.4,3.1-1,3.9c-0.7,0.8-1.7,1.2-3.1,1.2c-1.3,0-2.3-0.5-2.9-1.4c-0.7-0.9-1-2.3-1-4.1s0.3-3.2,1-4.2s1.6-1.5,2.8-1.5
	c1.4,0,2.4,0.4,3.1,1.3c0.7,0.9,1,2.4,1,4.4h0.1L-124.9,263.9L-124.9,263.9z"/>
<g>
	<path class="st1" d="M-24.2,271.3h-3.4V262h-9.5v9.3h-3.4v-20.7h3.4v8.5h9.5v-8.5h3.4V271.3z"/>
	<path class="st1" d="M-15.6,263.3l-5.3-7.7h3.8l3.6,5.5l3.6-5.5h3.8l-5.3,7.7l5.5,8h-3.8l-3.9-5.9l-3.9,5.9h-3.8L-15.6,263.3z"/>
</g>
</svg>
